# xmcd
#
# Track frame offsets:
#	150
#	11418
#	25083
#	34376
#	45993
#	56935
#	69347
#	79323
#	90786
#	101197
#	115451
#	131341
#	143248
#	157150
#	168801
#	182953
#	196021
#	211256
#	224157
#	236613
#	248363
#	260348
#	273039
#	286827
#
# Disc length: 4002 seconds
#
# Revision: 2
# Processed by: cddbd v1.5.1PL2 Copyright (c) Steve Scherf et al.
# Submitted via: audiograbber 1.83.01
#
DISCID=4e0fa018
DTITLE=Lale Andersen - Die großen Erfolge der Lale Andersen
DYEAR=1900
DGENRE=
TTITLE0=Blaue Nacht im Hafen
TTITLE1=Die großße Freiheit gibts in jedem Hafen
TTITLE2=Im roten Licht der Hafenbar
TTITLE3=Grau war der Ozean
TTITLE4=Matrosen aus Piräus
TTITLE5=Wenn du heimkommst
TTITLE6=Lili Marleen
TTITLE7=Einmal sehen wir uns wieder
TTITLE8=Grüß mir das Meer und den Wind
TTITLE9=Wo die Nordseewellen
TTITLE10=Das Lied vom Meer
TTITLE11=Der Junge an der Reeling
TTITLE12=Ein Schiff wird kommen
TTITLE13=Ich schick dir eine Prise Sand
TTITLE14=Der Rummelplatz am Hafen
TTITLE15=He hast du Feuer Seemann
TTITLE16=Roseb aus Monteux
TTITLE17=Ich wünsch dir eine gute Fahr
TTITLE18=Er sah aus wie ein Lord
TTITLE19=Ich schau den weißen Wolken nach
TTITLE20=Blaues Meer
TTITLE21=El Paso
TTITLE22=Matrosen Matrosen
TTITLE23=Jonny
EXTD=Schallplatte
EXTT0=
EXTT1=
EXTT2=
EXTT3=
EXTT4=
EXTT5=
EXTT6=
EXTT7=
EXTT8=
EXTT9=
EXTT10=
EXTT11=
EXTT12=
EXTT13=
EXTT14=
EXTT15=
EXTT16=
EXTT17=
EXTT18=
EXTT19=
EXTT20=
EXTT21=
EXTT22=
EXTT23=
PLAYORDER=
